<svg width="124" height="166" viewBox="0 0 124 166" fill="none" xmlns="http://www.w3.org/2000/svg">
<path d="M105.215 58.5214C104.617 57.1615 105.516 55.6135 105.777 54.7351C106.178 53.3959 106.178 52.4493 105.564 52.4183C105.153 52.3935 104.673 52.7242 104.365 53.1809C104.216 53.4041 104.142 53.4331 104.22 53.0735C104.491 51.8686 105.163 50.0788 106.922 50.7277C108.399 51.2795 107.755 53.3731 107.236 54.3941C106.82 55.2043 105.556 56.6758 105.777 57.9985C106.002 59.3811 108.796 59.2716 111.243 60.2988C113.794 61.3735 114.709 63.7275 116.526 63.992C116.652 63.992 116.772 63.9817 116.892 63.9631C116.91 63.961 116.933 63.9507 116.956 63.9465C117.051 63.93 117.14 63.9031 117.235 63.8742C117.261 63.868 117.286 63.8494 117.309 63.8411C117.394 63.8081 117.476 63.775 117.557 63.7378C117.603 63.7109 117.648 63.6799 117.693 63.6551C117.751 63.6179 117.807 63.591 117.863 63.5538C117.935 63.5022 118.006 63.4464 118.074 63.3906C118.101 63.3699 118.123 63.3534 118.152 63.3368C119.179 62.4647 119.839 60.9642 120.184 60.2264C121.535 57.3413 122.654 54.5884 123.28 51.6226C124.133 47.5429 124.218 43.2276 123.588 39.3462C122.829 34.568 120.585 30.108 117.654 25.9476C114.488 21.4752 109.834 17.8523 103.832 15.1924C99.2892 13.1794 93.9281 11.7037 87.8912 10.7944C86.986 10.6538 86.0911 10.5402 85.2127 10.4368C84.7229 10.379 84.2476 10.3294 83.7681 10.2777C83.4085 10.2405 83.0406 10.2012 82.683 10.162C82.0072 10.1 81.35 10.0545 80.699 10.007C80.5708 10.0008 80.4448 9.98836 80.3208 9.98216C79.5809 9.93462 78.8555 9.88915 78.1548 9.85815H78.1052C77.913 10.0876 76.766 12.485 76.5903 14.0164C76.427 15.4528 76.022 19.2535 74.5422 19.9686C72.5809 20.9172 71.6136 20.0223 70.6526 19.5635C70.0512 19.2783 68.8876 19.0076 68.4247 19.5408C67.7406 20.3261 68.5404 21.1838 68.9372 21.5186C67.7199 21.6902 66.5853 19.1192 67.815 18.1023C68.5962 17.4575 69.3754 17.658 71.3987 18.9972C73.4882 20.3695 74.3314 19.3093 74.6352 18.7079C75.4743 17.0504 75.8298 13.4481 76.0633 11.9042C76.301 10.3542 77.9316 8.80205 78.2292 6.99366C78.2478 6.84693 78.2726 6.69192 78.2726 6.56792C78.2726 5.21421 77.2703 4.47432 76.9169 4.22218C73.0128 1.47343 65.1675 0.5 61.9971 0.5C59.0975 0.5 50.9856 1.47343 47.0857 4.22218C46.7281 4.47432 45.7299 5.21214 45.7299 6.56792C45.7299 6.68159 45.7506 6.84693 45.7712 6.99366C46.0689 8.80205 47.6974 10.3542 47.9351 11.9042C48.1687 13.4481 48.52 17.0504 49.3612 18.7079C49.6712 19.3093 50.5123 20.3695 52.6018 18.9972C54.6251 17.6601 55.4084 17.4596 56.1814 18.1023C57.409 19.1192 56.2806 21.6902 55.0612 21.5186C55.4559 21.1838 56.2599 20.3261 55.5779 19.5408C55.1087 19.0076 53.9493 19.2783 53.352 19.5635C52.3848 20.0244 51.4155 20.9172 49.4583 19.9686C47.9826 19.2535 47.5755 15.4528 47.4122 14.0164C47.2366 12.485 46.0854 10.0896 45.8911 9.85815C45.1719 9.88915 44.4258 9.93255 43.657 9.98216C43.5826 9.98836 43.5082 9.99249 43.4317 10.0008C42.7394 10.0442 42.0325 10.1 41.305 10.164C40.9806 10.2012 40.6458 10.2405 40.3192 10.2715C39.8087 10.317 39.3065 10.3666 38.7816 10.4368C37.9053 10.5402 37.0145 10.6518 36.1072 10.7944C30.0703 11.7017 24.7113 13.1794 20.1686 15.1924C14.1668 17.8523 9.51461 21.4752 6.34424 25.9476C3.41156 30.11 1.16709 34.568 0.404464 39.3462C-0.215555 43.2276 -0.132886 47.545 0.72274 51.6226C1.34483 54.5904 2.45466 57.3433 3.81663 60.2264C4.32298 61.2908 5.49275 63.9899 7.47681 63.9899C9.2914 63.7254 10.2049 61.3693 12.7552 60.2967C15.2043 59.2695 17.9944 59.3791 18.2279 57.9964C18.4429 56.6737 17.176 55.2001 16.7647 54.392C16.2439 53.3711 15.6073 51.2754 17.083 50.7257C18.8356 50.0767 19.5052 51.8665 19.7759 53.0714C19.8545 53.431 19.7801 53.4021 19.6312 53.1789C19.3274 52.7221 18.8459 52.3914 18.4346 52.4162C17.8187 52.4472 17.8187 53.3938 18.2259 54.733C18.4863 55.6114 19.3832 57.1594 18.788 58.5193C18.23 59.7862 15.938 59.6767 13.5117 61.0324C11.2858 62.2725 10.0003 63.6965 8.43164 64.4219C8.37584 65.6082 8.1671 66.7387 7.75375 67.7369C7.92323 67.894 8.42751 68.204 8.85532 68.452C9.3658 68.7641 9.88869 69.0741 10.2772 69.3758C10.7154 69.7148 11.0378 70.093 10.8352 71.3909C10.6492 72.571 9.53527 73.5796 8.65485 73.1745C8.17537 72.9595 7.78682 72.7549 7.62562 72.6847C7.38588 72.6495 7.16267 72.6351 7.10893 72.6785C7.02006 72.7467 7.0862 72.8851 7.28254 73.0133C7.47268 73.1414 8.2477 73.9412 8.45851 74.0156C8.66932 74.0838 8.1299 74.9312 8.95246 76.0245C8.17743 76.2002 6.41658 75.1234 6.95186 72.5483C7.49335 69.9793 9.18393 71.1677 8.88219 72.077C8.80779 72.2816 8.73545 72.4305 8.66725 72.5462C8.82225 72.7343 9.12813 72.8521 9.45881 72.6309C9.69028 72.4759 10.0995 72.0357 10.2545 71.2214C10.362 70.6469 10.0602 70.1012 9.85148 69.9463C9.49601 69.6693 8.98966 69.3634 8.49984 69.072C8.05756 68.8095 7.73309 68.5677 7.45201 68.3693C7.44788 68.3693 7.44168 68.3714 7.44168 68.3714C6.66252 67.7245 5.87096 67.4434 5.15381 67.4434C3.14081 67.4434 1.6817 69.599 2.527 71.7381C3.00028 72.9265 4.62059 73.2943 5.45142 74.0838C6.50752 75.0821 6.66252 76.382 8.56391 76.7623C8.66932 76.785 8.77678 76.7995 8.88012 76.7995C10.7257 76.7995 12.2055 73.5217 12.7986 70.9011L12.8214 70.9135C12.5486 71.9572 12.282 73.1724 12.0732 74.5054C11.7859 76.2994 11.7446 78.0478 11.9451 79.6909C12.1952 81.7245 12.5238 83.6363 13.5013 85.3744C14.0614 86.3788 15.1154 86.9947 16.2459 86.9947C16.3017 86.9947 16.3617 86.9947 16.4175 86.9823L18.6248 86.4677C19.8669 86.4077 20.7369 86.6516 21.5058 84.8267C21.5864 84.6366 21.9439 83.6425 22.0617 82.3404C22.0762 82.1461 22.0969 81.9519 22.1051 81.7617C22.1134 81.6439 22.1237 81.5468 22.1279 81.4455C22.1361 81.3505 22.1382 81.2678 22.1423 81.1851C22.1444 81.0549 22.1485 80.9247 22.1485 80.7986C22.1485 80.7449 22.1444 80.6891 22.1444 80.6354C22.1423 80.4948 22.1361 80.3584 22.1237 80.2282C22.1196 80.1993 22.1134 80.1724 22.1113 80.1373C22.0287 79.5131 21.8137 78.9923 21.328 78.6988C21.1234 78.5893 20.6171 78.3723 20.0467 78.488C20.0033 78.5025 19.9599 78.5211 19.9165 78.5294C19.8917 78.5356 19.8731 78.5418 19.8483 78.548C19.7656 78.5748 19.6829 78.61 19.6002 78.6616C18.6496 79.2176 18.1101 81.5137 18.8604 83.3697C18.9472 83.5846 20.1066 83.3407 19.9041 83.0803C19.8007 82.9398 19.0071 81.7307 19.4473 80.2551C19.6581 79.5586 20.0859 78.7939 20.8258 79.2651C21.5864 79.7425 21.5512 81.3257 21.4107 81.2885C21.2681 81.2616 21.1772 80.6519 20.646 81.0528C20.2575 81.3339 20.2575 82.3115 20.3567 82.8137C20.4455 83.3118 20.615 83.5784 20.4001 83.6053C20.1913 83.6383 19.1042 83.8553 19.1414 83.9442C19.2468 84.2356 19.7656 84.1405 20.0921 84.0889C20.4187 84.0475 20.3029 84.4857 20.5137 84.558C20.7245 84.6283 20.7762 84.1922 20.9416 84.217C21.1048 84.2356 21.0015 84.4816 20.9085 84.7957C20.8176 85.0974 20.6667 85.2607 20.0529 85.1884C19.0898 85.0809 17.9779 85.0251 17.8125 77.9962L17.8146 77.9776V77.959C17.8146 77.7688 17.827 77.5869 17.8291 77.3968C17.8373 77.1984 17.8435 76.9979 17.8621 76.7954C17.8787 76.6135 17.8973 76.4399 17.92 76.2601C17.9489 76.0286 17.9799 75.8096 18.0151 75.5822C18.0399 75.4458 18.0605 75.3115 18.0833 75.1875C18.1556 74.8196 18.2321 74.4703 18.3189 74.1334C18.4181 73.7408 18.5317 73.3625 18.6413 73.0009L18.6661 73.0153C18.9058 72.3809 19.6664 70.2315 19.6354 70.1405C22.0617 62.0038 21.1689 55.9958 20.8672 54.3548C20.8258 54.1358 20.7824 53.927 20.7287 53.6997C20.3629 52.1579 19.6333 50.4839 18.2631 49.9878H18.2527C17.5128 49.8184 15.8181 50.0085 15.1878 51.3436C14.2392 53.369 16.0269 55.8863 16.2377 56.2831C16.3575 56.5084 16.463 56.744 16.3824 56.7667C15.69 56.9837 13.9395 53.1272 13.3153 50.9447C11.7653 45.7758 11.5937 39.3607 16.0641 33.0283C20.6026 26.6007 30.4216 23.9222 37.8577 22.7979C42.7662 22.0622 47.4081 21.8824 50.781 21.8824C51.6015 21.8824 52.3434 21.8969 52.9965 21.9113C53.4491 21.9175 53.9431 21.9589 54.4267 21.9589C54.5548 21.9589 54.683 21.9485 54.807 21.9444C56.2248 21.8307 57.2168 20.4977 57.2168 18.865C57.2168 17.1578 56.1132 16.0749 54.6251 15.7917C52.1016 15.304 50.5723 17.4451 50.7273 18.1209C50.8203 18.5363 51.0538 18.7885 51.5912 18.7658C51.7875 18.7575 51.7255 19.2308 51.0765 19.1791C50.2374 19.113 49.7001 18.5963 49.7001 17.7427C49.7125 16.3415 52.3641 15.118 55.6151 14.0701C56.1814 13.8821 56.7435 13.7312 57.2726 13.6072C59.701 13.0326 61.5776 13.0285 61.9971 13.0285C62.4188 13.0285 64.2995 13.0326 66.7258 13.6072C67.2549 13.7312 67.815 13.8821 68.3895 14.0701C71.6302 15.118 74.2859 16.3415 74.3004 17.7407C74.3004 18.5942 73.7589 19.1109 72.9239 19.177C72.2791 19.2266 72.213 18.7554 72.4114 18.7637C72.9508 18.7864 73.1823 18.5343 73.2774 18.1189C73.4282 17.443 71.9009 15.3019 69.3754 15.7897C67.8894 16.0749 66.7775 17.1558 66.7775 18.8629C66.7775 20.4956 67.7778 21.8307 69.1914 21.9423C69.3175 21.9465 69.4456 21.9568 69.5738 21.9568C70.0615 21.9568 70.5534 21.9134 71.0019 21.9093C71.6529 21.8948 72.4031 21.8803 73.2174 21.8803C76.5903 21.8803 81.2322 22.0601 86.1365 22.7959C93.5809 23.9202 103.392 26.5987 107.936 33.0262C112.401 39.3566 112.231 45.7738 110.683 50.9427C110.055 53.1272 108.308 56.9837 107.616 56.7646C107.529 56.7398 107.641 56.5063 107.761 56.281C107.976 55.8863 109.761 53.369 108.806 51.3415C108.184 50.0085 106.492 49.8163 105.748 49.9775C104.373 50.4673 103.64 52.1538 103.274 53.6956C103.224 53.9229 103.181 54.1316 103.14 54.3507C102.84 55.9917 101.947 61.9997 104.371 70.1364C104.338 70.2273 105.103 72.3767 105.341 73.0112L105.367 72.9967C105.477 73.3584 105.587 73.7346 105.688 74.1293C105.775 74.4662 105.849 74.8155 105.921 75.1751C105.946 75.3073 105.969 75.4417 105.99 75.5781C106.025 75.8054 106.06 76.0245 106.089 76.258C106.109 76.4358 106.13 76.6052 106.142 76.783C106.159 77 106.165 77.2087 106.176 77.4237C106.18 77.6035 106.192 77.7688 106.192 77.9507V77.9652L106.196 77.9941C106.025 85.023 104.915 85.0809 103.946 85.1863C103.34 85.2566 103.191 85.0954 103.098 84.7936C103.001 84.4795 102.904 84.2336 103.065 84.215C103.233 84.1901 103.28 84.6262 103.495 84.556C103.702 84.4857 103.584 84.0475 103.917 84.0868C104.241 84.1364 104.754 84.2315 104.867 83.9421C104.902 83.8533 103.815 83.6363 103.605 83.6032C103.394 83.5763 103.559 83.3097 103.65 82.8116C103.741 82.3115 103.741 81.3319 103.359 81.0508C102.83 80.6519 102.737 81.2616 102.594 81.2864C102.455 81.3236 102.418 79.7405 103.179 79.2631C103.919 78.7898 104.349 79.5565 104.555 80.253C104.998 81.7287 104.202 82.9377 104.096 83.0782C103.894 83.3387 105.053 83.5805 105.144 83.3676C105.894 81.5117 105.351 79.2135 104.4 78.6596C104.318 78.61 104.233 78.5728 104.15 78.5459C104.086 78.5232 104.022 78.5046 103.954 78.488C103.388 78.3702 102.877 78.5893 102.672 78.6988C102.181 78.9944 101.966 79.5276 101.887 80.1621L101.883 80.1952C101.866 80.3543 101.858 80.5052 101.854 80.656V80.7552C101.85 80.9082 101.854 81.057 101.858 81.2099C101.862 81.2492 101.862 81.2885 101.866 81.3339C101.883 81.6646 101.908 81.9953 101.941 82.3446C102.061 83.6466 102.416 84.6407 102.495 84.8308C103.264 86.6558 104.138 86.4119 105.372 86.4718L107.587 86.9864C107.637 86.9988 107.699 86.9988 107.75 86.9988C108.887 86.9988 109.937 86.3829 110.501 85.3785C111.477 83.6404 111.812 81.7287 112.057 79.695C112.258 78.052 112.212 76.3035 111.929 74.5096C111.719 73.1745 111.454 71.9613 111.183 70.9176L111.204 70.9052C111.797 73.5279 113.281 76.8036 115.124 76.8036C115.23 76.8036 115.331 76.7892 115.434 76.7665C117.338 76.3862 117.495 75.0883 118.547 74.088C119.374 73.2985 121.002 72.9306 121.473 71.7422C122.321 69.6032 120.856 67.4476 118.847 67.4476C118.125 67.4476 117.338 67.7286 116.565 68.3755C116.559 68.3755 116.551 68.3735 116.542 68.3735C116.261 68.5719 115.941 68.8137 115.501 69.0761C115.011 69.3676 114.507 69.6734 114.149 69.9504C113.936 70.1054 113.639 70.651 113.748 71.2256C113.897 72.0398 114.308 72.478 114.542 72.6351C114.87 72.8562 115.184 72.7384 115.333 72.5503C115.263 72.4346 115.193 72.2858 115.118 72.0812C114.817 71.1718 116.499 69.9814 117.044 72.5524C117.584 75.1275 115.821 76.2043 115.048 76.0286C115.866 74.9374 115.329 74.09 115.54 74.0198C115.753 73.9454 116.524 73.1455 116.718 73.0174C116.91 72.8893 116.98 72.7508 116.885 72.6826C116.84 72.6392 116.613 72.6537 116.375 72.6888C116.22 72.7591 115.819 72.9637 115.346 73.1786C114.467 73.5816 113.349 72.5751 113.165 71.395C112.961 70.0971 113.281 69.7189 113.725 69.38C114.114 69.0782 114.633 68.7682 115.143 68.4561C115.571 68.2081 116.077 67.8981 116.247 67.741C115.827 66.7449 115.623 65.6144 115.569 64.426C113.996 63.7006 112.715 62.2766 110.489 61.0366C108.06 59.6767 105.77 59.7883 105.215 58.5214Z" fill="#FFB9D4"/>
<path d="M64.1734 95.9829V93.6289C64.1734 93.4264 64.3325 93.2776 64.5227 93.2776H66.8395C66.9325 93.2776 67.0172 93.3065 67.0792 93.3726L69.7288 95.9705V86.1639L67.0792 88.7659C67.0172 88.8258 66.9325 88.863 66.8395 88.863H64.5227C64.3305 88.863 64.1734 88.706 64.1734 88.5096V86.1577C64.1734 86.0647 64.2085 85.9779 64.2726 85.9117L66.8312 83.2208H57.1734L59.7299 85.9117C59.7919 85.9779 59.8229 86.0647 59.8229 86.1577V88.5096C59.8229 88.706 59.67 88.863 59.4778 88.863H57.1548C57.068 88.863 56.9812 88.8258 56.9171 88.7618L54.2655 86.1639V95.9705L56.9171 93.3726C56.9791 93.3065 57.0659 93.2776 57.1548 93.2776H59.4778C59.6679 93.2776 59.8229 93.4264 59.8229 93.6289V95.9829C59.8229 96.0759 59.7919 96.1565 59.7299 96.2247L57.1734 98.9135H66.8312L64.2726 96.2247C64.2065 96.1565 64.1734 96.0759 64.1734 95.9829ZM63.0842 95.7845C63.0842 95.9767 62.9292 96.1338 62.7391 96.1338H61.3895C61.1994 96.1338 61.0444 95.9767 61.0444 95.7845V92.2173H57.3553C57.1672 92.2173 57.0101 92.0582 57.0101 91.8639V90.5081C57.0101 90.3035 57.1693 90.1506 57.3553 90.1506H61.0444V86.3519C61.0444 86.1618 61.2015 86.0006 61.3895 86.0006H62.737C62.9272 86.0006 63.0822 86.1618 63.0822 86.3519V90.1506H66.639C66.8312 90.1506 66.9842 90.3035 66.9842 90.5081V91.8639C66.9842 92.0582 66.8312 92.2173 66.639 92.2173H63.0842V95.7845Z" fill="#FFB9D4"/>
<path d="M66.8312 83.2208L64.2705 85.9117C64.2044 85.9779 64.1734 86.0647 64.1734 86.1577V88.5117C64.1734 88.7059 64.3305 88.863 64.5227 88.863H66.8395C66.9325 88.863 67.0193 88.8258 67.0813 88.7659L69.7267 86.1639V95.9705L67.0813 93.3726C67.0193 93.3065 66.9325 93.2776 66.8395 93.2776H64.5227C64.3305 93.2776 64.1734 93.4264 64.1734 93.6289V95.9829C64.1734 96.0759 64.2065 96.1565 64.2705 96.2247L66.8312 98.9135H57.1713L59.7279 96.2247C59.7878 96.1565 59.8209 96.0759 59.8209 95.9829V93.6289C59.8209 93.4264 59.6659 93.2776 59.4757 93.2776H57.1548C57.0659 93.2776 56.9812 93.3065 56.9171 93.3726L54.2634 95.9705V86.1639L56.9171 88.7618C56.9791 88.8258 57.0639 88.863 57.1548 88.863H59.4757C59.6659 88.863 59.8209 88.7059 59.8209 88.5117V86.1577C59.8209 86.0647 59.7878 85.9779 59.7279 85.9117L57.1713 83.2208H66.8312ZM61.0444 90.1527H57.3553C57.1651 90.1527 57.0081 90.3056 57.0081 90.5102V91.868C57.0081 92.0603 57.1672 92.2194 57.3553 92.2194H61.0444V95.7866C61.0444 95.9788 61.2014 96.1358 61.3895 96.1358H62.735C62.9272 96.1358 63.0822 95.9788 63.0822 95.7866V92.2194H66.6411C66.8312 92.2194 66.9842 92.0603 66.9842 91.868V90.5102C66.9842 90.3056 66.8312 90.1527 66.6411 90.1527H63.0822V86.354C63.0822 86.1639 62.9272 86.0027 62.735 86.0027H61.3895C61.2014 86.0027 61.0444 86.1639 61.0444 86.354V90.1527ZM67.6496 82.8674H56.3508L59.4778 86.1577V88.5117H57.1569L53.9204 85.333V96.8034L57.1569 93.631H59.4778V95.985L56.3508 99.2669H67.6496L64.5227 95.985V93.631H66.8395L70.0781 96.8034V85.333L66.8395 88.5117H64.5227V86.1577L67.6496 82.8674ZM57.3573 91.868V90.5102H61.3916V86.354H62.737V90.5102H66.6432V91.868H62.737V95.7866H61.3916V91.868H57.3573Z" fill="#FFB9D4"/>
<path d="M100.517 75.0903L99.1797 73.6932H99.1755C99.1714 73.6891 99.1673 73.6891 99.1631 73.6891C99.1053 73.6312 99.0288 73.6106 98.9544 73.6002C98.9399 73.6002 98.9358 73.592 98.9234 73.592H25.0709C24.9799 73.592 24.8911 73.6292 24.8291 73.6891C24.7588 73.7532 24.7237 73.8441 24.7237 73.9433V126.616C24.7237 137.196 29.039 146.773 35.9625 153.649C42.7766 161.137 52.5336 165.838 63.3405 165.838C83.8983 165.838 100.618 148.871 100.618 128.015V75.3404C100.616 75.2474 100.579 75.1647 100.517 75.0903ZM26.8586 75.7124H97.7557V76.4006V105.405H26.8586V75.7124ZM44.5457 159.204C44.0083 158.902 43.473 158.601 42.9502 158.278C43.1734 158.315 43.3821 158.359 43.5826 158.413C44.0951 158.53 44.6242 158.656 45.6617 158.656C46.7033 158.656 47.2366 158.528 47.745 158.413C48.2513 158.287 48.7287 158.169 49.7125 158.169C50.6942 158.169 51.1757 158.289 51.6821 158.413C51.7234 158.419 51.7668 158.431 51.8061 158.439C51.8206 158.702 51.8516 158.96 51.9177 159.21C51.6594 159.175 51.3804 159.15 51.0083 159.15C50.0597 159.15 49.5782 159.283 49.1111 159.415C48.6605 159.531 48.2286 159.653 47.344 159.653C46.4636 159.653 46.0337 159.529 45.5811 159.415C45.2814 159.328 44.9673 159.254 44.5457 159.204ZM64.5847 142.22C64.3491 142.381 64.13 142.567 63.913 142.743C63.7146 142.908 63.5286 143.08 63.3426 143.255C62.9912 143.6 62.6544 143.962 62.363 144.351C62.1563 144.632 61.962 144.913 61.7863 145.204C60.2466 147.808 60.7261 151.423 62.1005 153.767C60.5587 153.256 58.9156 152.998 57.2003 152.998C55.5551 152.998 54.3048 153.238 53.755 153.364C53.7633 152.082 54.1312 146.901 59.2112 142.976C59.7671 142.819 60.3086 142.691 60.8294 142.588C60.8501 142.581 60.8666 142.581 60.8873 142.581C62.2493 142.302 63.4935 142.172 64.5847 142.22ZM62.363 139.886C61.5611 138.613 61.993 137.57 62.363 136.956V139.886ZM71.2251 140.682C71.3532 140.835 71.5103 141.023 71.5516 141.118C71.7645 141.569 71.4731 142.135 71.0866 142.431C70.7063 142.73 70.169 142.767 69.7102 142.528C69.6709 142.484 69.6068 142.482 69.549 142.497C69.4684 142.528 69.4208 142.619 69.4374 142.701C69.5614 143.216 69.3857 143.747 68.993 144.053C68.6065 144.348 68.0671 144.388 67.6145 144.142C67.5711 144.111 67.507 144.098 67.4512 144.121C67.3644 144.15 67.319 144.239 67.3355 144.32C67.4595 144.84 67.2838 145.369 66.8912 145.673C66.6948 145.818 66.4592 145.903 66.2133 145.925C66.205 145.925 66.1947 145.919 66.1802 145.919C65.9611 145.93 65.7235 145.882 65.5106 145.766C65.463 145.725 65.3969 145.723 65.339 145.75C65.2626 145.775 65.2212 145.865 65.2378 145.944C65.3618 146.465 65.1882 146.992 64.7914 147.294C64.7376 147.333 64.6777 147.364 64.6178 147.391C64.5268 147.44 64.4359 147.482 64.3408 147.498C64.3305 147.5 64.3222 147.5 64.3139 147.506C64.223 147.523 64.1321 147.544 64.0453 147.544C64.006 147.544 63.9667 147.535 63.9316 147.531C63.8634 147.523 63.7973 147.517 63.7332 147.506C63.6195 147.482 63.51 147.442 63.4087 147.382C63.3571 147.349 63.2826 147.339 63.2248 147.378C63.1586 147.413 63.1235 147.492 63.1421 147.566C63.2599 148.081 63.0863 148.616 62.6916 148.92C62.4663 149.09 62.1873 149.164 61.9041 149.154C61.869 149.154 61.8359 149.154 61.8029 149.147C61.6417 149.131 61.4867 149.094 61.3379 149.019C61.3379 148.775 61.3544 148.538 61.3751 148.296L62.3609 147.533L66.0397 144.687L71.2251 140.682ZM66.0417 144.067V142.377C66.7238 142.542 67.1784 142.832 67.3975 143.015L66.0417 144.067ZM70.1008 150.906C70.0264 150.956 69.9499 150.987 69.8714 151.018H69.8652C69.7887 151.045 69.704 151.059 69.6192 151.059C69.4663 151.059 69.3072 151.022 69.1708 150.941C69.1191 150.906 69.0468 150.894 68.9951 150.917C68.9186 150.948 68.8732 151.036 68.8918 151.119C68.9641 151.47 68.8339 151.828 68.5631 152.024C68.2965 152.214 67.9328 152.235 67.6393 152.064C67.5918 152.028 67.536 152.012 67.4802 152.028C67.3913 152.057 67.3355 152.142 67.3582 152.239C67.4182 152.549 67.2322 152.973 66.9284 153.192C66.8726 153.238 66.7961 153.26 66.7093 153.277C66.6742 153.289 66.639 153.289 66.5977 153.293C66.5543 153.3 66.5109 153.304 66.4675 153.304C66.4034 153.3 66.3435 153.293 66.2939 153.283C66.2732 153.277 66.2567 153.277 66.2422 153.275C66.1699 153.26 66.1079 153.244 66.0438 153.217C65.9921 153.192 65.9301 153.176 65.8991 153.145V152.882L71.7335 148.687C71.8141 148.817 71.8906 148.959 71.9071 149.003C72.0104 149.305 71.9092 149.586 71.6364 149.786C71.3718 149.982 71.006 150.001 70.7063 149.829C70.6671 149.788 70.6133 149.786 70.5513 149.788C70.4645 149.817 70.4108 149.906 70.4253 149.999C70.4976 150.348 70.3695 150.702 70.1008 150.906ZM71.1259 154.55C70.6154 154.754 70.0305 154.955 69.4022 155.095L69.3981 151.514L71.1259 154.55ZM68.0754 152.522C68.2965 152.522 68.5135 152.467 68.7078 152.343L68.712 155.23C68.3069 155.292 67.8935 155.335 67.4678 155.335C67.104 155.335 66.7527 155.298 66.4117 155.242L68.0754 152.522ZM66.0417 154.912V153.595C66.1781 153.641 66.3269 153.659 66.4716 153.659C66.5977 153.659 66.7196 153.645 66.8333 153.614L66.0417 154.912ZM66.0417 152.169V146.269C66.1678 146.277 66.2918 146.273 66.4075 146.256L68.6892 150.261L66.0417 152.169ZM63.3219 154.405C63.324 153.56 63.3261 152.748 63.3261 151.981L64.9939 147.581C64.998 147.581 65.0063 147.575 65.0063 147.575C65.1448 147.469 65.2522 147.331 65.3473 147.182V155.73L63.3219 154.405ZM65.3473 156.313V156.608C65.0063 156.91 64.409 157.063 63.5079 157.063C63.448 157.063 63.3757 157.055 63.3178 157.049C63.3178 156.34 63.3178 155.656 63.3219 154.99L65.3473 156.313ZM63.3281 150.803C63.3281 150.049 63.3302 149.352 63.3302 148.672C63.4666 148.408 63.5389 148.114 63.5265 147.819C63.8303 147.907 64.1527 147.907 64.4524 147.835L63.3281 150.803ZM62.363 154.523V156.993C62.0633 156.962 61.7677 156.939 61.4598 156.898L62.363 154.523ZM61.0361 156.848C60.8584 156.815 60.6806 156.801 60.5008 156.776L60.3624 156.755C60.0544 156.712 59.7733 156.679 59.5212 156.646C57.7211 156.42 57.4441 156.379 56.5906 154.943C56.2723 154.409 55.4001 154.046 54.4102 153.738C55.0529 153.622 56.0222 153.494 57.2044 153.494C58.8908 153.494 60.5008 153.762 62.0116 154.275L61.0361 156.848ZM62.363 149.451V153.213C61.7967 152.117 61.4247 150.768 61.3606 149.393C61.5549 149.468 61.7491 149.522 61.9475 149.522C62.0901 149.522 62.2266 149.493 62.363 149.451ZM61.435 147.633C61.5652 146.862 61.8111 146.124 62.2038 145.465C62.2472 145.382 62.3092 145.312 62.363 145.231V146.907L61.435 147.633ZM65.3473 144.605L63.3364 146.157C63.3364 145.374 63.3364 144.64 63.3364 143.966C63.9171 143.344 64.5847 142.782 65.3473 142.311V144.605ZM56.171 155.197C57.1507 156.848 57.6405 156.906 59.4592 157.135C59.7155 157.173 59.9883 157.197 60.2962 157.243L60.4368 157.261C61.4805 157.404 62.5614 157.559 63.51 157.559C63.7787 157.559 64.0246 157.538 64.2499 157.52C64.4111 157.497 64.5537 157.472 64.686 157.437C64.7356 157.423 64.7914 157.414 64.8389 157.404C65.0063 157.357 65.153 157.303 65.2832 157.233C65.2936 157.23 65.2998 157.224 65.3101 157.218C65.4486 157.154 65.5726 157.069 65.6801 156.972C65.7359 156.922 65.802 156.885 65.8475 156.836C65.9343 156.726 65.9859 156.6 66.0438 156.468C66.0831 156.379 66.112 156.286 66.1409 156.189C66.1699 156.04 66.2071 155.887 66.205 155.716C66.6101 155.788 67.0358 155.823 67.4678 155.823C69.8176 155.823 71.9278 154.796 72.8785 154.246C72.6966 154.788 72.3742 155.511 72.0394 155.62C71.9485 155.654 71.8864 155.736 71.874 155.833C71.7604 156.972 71.1528 157.042 71.13 157.042C71.068 157.046 71.006 157.084 70.9647 157.131C70.9213 157.185 70.8965 157.243 70.9027 157.313C70.9254 157.611 70.9254 157.873 70.913 158.111V158.115C70.8799 158.741 70.7456 159.194 70.5823 159.529C70.3405 159.578 70.0698 159.622 69.7081 159.638C69.5882 159.642 69.458 159.653 69.3134 159.653C68.4329 159.653 68.0031 159.529 67.5484 159.415C67.0854 159.285 66.6018 159.15 65.6553 159.15C64.7087 159.15 64.2313 159.283 63.7642 159.415C63.3075 159.531 62.8776 159.653 61.9971 159.653C61.1126 159.653 60.6827 159.529 60.228 159.415C59.763 159.285 59.2835 159.15 58.3328 159.15C57.3863 159.15 56.9047 159.283 56.4438 159.415C55.9871 159.531 55.5551 159.653 54.6747 159.653C53.7922 159.653 53.3623 159.529 52.9056 159.415C52.7671 159.369 52.6183 159.336 52.4633 159.299H52.4675C52.422 159.183 52.3848 159.059 52.36 158.931C52.3042 158.656 52.2897 158.349 52.2897 158.036V158.03C52.2897 157.848 52.2938 157.673 52.2959 157.497C52.3228 156.604 52.3517 155.682 51.7648 155.168C50.8203 154.337 50.9753 153.531 51.1303 153.145C51.6118 153.442 52.393 153.661 53.2817 153.915C54.4784 154.265 55.8466 154.657 56.171 155.197ZM53.1329 162.62C53.6579 162.649 53.9762 162.742 54.2924 162.846C54.466 162.899 54.6437 162.953 54.8525 163.003C54.2758 162.881 53.6992 162.761 53.1329 162.62ZM61.9992 163.734C59.5997 163.734 57.2664 163.482 55.0013 163.03C55.2389 163.073 55.52 163.102 55.8941 163.102C56.6918 163.102 57.0969 162.972 57.4896 162.846C57.8658 162.722 58.2192 162.606 58.9425 162.606C59.67 162.606 60.0193 162.724 60.3934 162.846C60.7881 162.972 61.1911 163.102 61.9868 163.102C62.7908 163.102 63.1938 162.972 63.5906 162.846C63.9647 162.722 64.316 162.606 65.0435 162.606C65.7689 162.606 66.1223 162.724 66.4964 162.846C66.885 162.972 67.2921 163.102 68.0899 163.102C68.8938 163.102 69.2989 162.972 69.6936 162.846C70.0202 162.732 70.3529 162.637 70.9192 162.62C68.0671 163.35 65.0745 163.734 61.9992 163.734ZM72.2709 162.236C71.9836 162.166 71.6426 162.116 71.1383 162.116C70.3405 162.116 69.9375 162.246 69.5448 162.37C69.1687 162.496 68.8153 162.606 68.0878 162.606C67.3644 162.606 67.011 162.494 66.6411 162.37C66.2484 162.246 65.8413 162.116 65.0414 162.116C64.2416 162.116 63.8345 162.246 63.4397 162.37C63.0677 162.496 62.7164 162.606 61.9868 162.606C61.2655 162.606 60.9142 162.494 60.538 162.37C60.1474 162.246 59.7423 162.116 58.9425 162.116C58.1448 162.116 57.7355 162.246 57.3429 162.37C56.9709 162.496 56.6154 162.606 55.8941 162.606C55.1687 162.606 54.8153 162.494 54.4391 162.37C54.0506 162.246 53.6414 162.116 52.8415 162.116C52.36 162.116 52.0293 162.164 51.7482 162.226C51.0827 162.034 50.4276 161.814 49.7766 161.579C50.1796 161.533 50.471 161.451 50.7479 161.362C51.1427 161.244 51.5209 161.13 52.2918 161.13C53.0668 161.13 53.4409 161.246 53.8377 161.362C54.251 161.496 54.683 161.624 55.5241 161.624C56.3694 161.624 56.7993 161.496 57.2127 161.362C57.6095 161.244 57.9815 161.13 58.7586 161.13C59.5315 161.13 59.9077 161.246 60.3024 161.362C60.7178 161.496 61.1477 161.624 61.9847 161.624C62.8321 161.624 63.2599 161.496 63.6753 161.362C64.0742 161.244 64.4503 161.13 65.2212 161.13C65.9983 161.13 66.3724 161.246 66.7692 161.362C67.1826 161.496 67.6124 161.624 68.4557 161.624C69.2968 161.624 69.7267 161.496 70.1401 161.362C70.5389 161.244 70.9171 161.13 71.688 161.13C72.4631 161.13 72.8392 161.246 73.2402 161.362C73.5233 161.453 73.8292 161.542 74.2653 161.581C73.6101 161.817 72.9467 162.04 72.2709 162.236ZM75.528 161.099C75.3524 161.118 75.1643 161.128 74.9328 161.128C74.1557 161.128 73.7754 161.013 73.3807 160.899C72.9673 160.767 72.5375 160.636 71.6901 160.636C70.8427 160.636 70.417 160.765 70.0037 160.899C69.6068 161.015 69.2286 161.128 68.4577 161.128C67.6848 161.128 67.3086 161.013 66.9118 160.899C66.4964 160.767 66.0665 160.636 65.2233 160.636C64.3821 160.636 63.9543 160.765 63.5389 160.899C63.14 161.015 62.7639 161.128 61.9889 161.128C61.218 161.128 60.8439 161.013 60.445 160.899C60.0338 160.767 59.6018 160.636 58.7606 160.636C57.9174 160.636 57.4875 160.765 57.0721 160.899C56.6774 161.015 56.3012 161.128 55.5262 161.128C54.7512 161.128 54.3792 161.013 53.9844 160.899C53.567 160.767 53.1391 160.636 52.2938 160.636C51.4506 160.636 51.0249 160.765 50.6074 160.899C50.2106 161.015 49.8344 161.128 49.0594 161.128C48.8217 161.128 48.6337 161.118 48.4601 161.099C47.6623 160.775 46.8832 160.419 46.1143 160.033C46.4326 160.097 46.8087 160.142 47.3399 160.142C48.2927 160.142 48.7721 160.012 49.2351 159.884C49.6918 159.762 50.1217 159.653 51.0042 159.653C51.8826 159.653 52.3186 159.764 52.7713 159.884C53.2342 160.012 53.7178 160.142 54.6644 160.142C55.613 160.142 56.0966 160.012 56.5596 159.884C57.0101 159.762 57.44 159.653 58.3225 159.653C59.2112 159.653 59.639 159.764 60.0937 159.884C60.5566 160.012 61.0382 160.142 61.9889 160.142C62.9334 160.142 63.4149 160.012 63.8779 159.884C64.3346 159.762 64.7666 159.653 65.647 159.653C66.5315 159.653 66.9614 159.764 67.414 159.884C67.8853 160.012 68.3627 160.142 69.3051 160.142C70.2558 160.142 70.7373 160.012 71.2024 159.884C71.6591 159.762 72.0869 159.653 72.9715 159.653C73.856 159.653 74.288 159.764 74.7427 159.884C75.2056 160.012 75.6892 160.142 76.6399 160.142C77.2 160.142 77.5927 160.095 77.9172 160.029C77.1421 160.419 76.3444 160.765 75.528 161.099ZM79.5209 159.196C79.0601 159.243 78.7294 159.328 78.4194 159.413C77.9626 159.529 77.5328 159.651 76.6482 159.651C75.7595 159.651 75.3296 159.527 74.8749 159.413C74.4079 159.283 73.9304 159.148 72.9797 159.148C72.0786 159.148 71.6012 159.27 71.159 159.386C71.2458 159.142 71.314 158.871 71.3574 158.555C71.6157 158.51 71.843 158.464 72.058 158.413C72.5664 158.287 73.0459 158.169 74.0276 158.169C75.0155 158.169 75.495 158.289 75.9992 158.413C76.5139 158.53 77.0429 158.656 78.0866 158.656C79.1303 158.656 79.6635 158.528 80.174 158.413C80.4737 158.336 80.7775 158.268 81.1619 158.22C80.6225 158.555 80.0769 158.884 79.5209 159.196ZM81.5649 157.52C80.6514 157.526 80.1534 157.648 79.6801 157.757C79.1903 157.881 78.7211 157.987 77.758 157.987C76.8032 157.987 76.3423 157.879 75.8442 157.757C75.3482 157.631 74.8357 157.512 73.8209 157.512C72.8144 157.512 72.2957 157.633 71.7976 157.757C71.6302 157.799 71.4607 157.834 71.2747 157.873C71.285 157.698 71.285 157.52 71.2706 157.328C71.5682 157.21 72.0497 156.881 72.1882 155.908C72.9301 155.476 73.3332 153.76 73.3332 153.667C73.3332 153.587 73.2836 153.498 73.205 153.459C73.1286 153.417 73.0376 153.421 72.9632 153.473C72.9467 153.488 72.337 153.889 71.3842 154.312L69.7267 151.408C69.9024 151.369 70.0657 151.313 70.2041 151.212C70.4955 150.997 70.665 150.652 70.6857 150.288C71.0287 150.394 71.4028 150.334 71.6942 150.129C72.0787 149.84 72.2295 149.412 72.0828 148.974C72.0539 148.875 71.9464 148.695 71.8699 148.573L72.12 148.393C72.2295 148.317 72.2481 148.164 72.1737 148.062C72.0993 147.955 71.9484 147.928 71.8451 147.998L69.3216 149.815V149.023C69.3216 148.837 69.1708 148.689 68.9848 148.689C68.7967 148.689 68.652 148.84 68.652 149.036V149.509L66.8168 146.289C66.916 146.24 67.0152 146.188 67.0999 146.12C67.5091 145.81 67.7241 145.303 67.7034 144.78C68.1932 144.94 68.7367 144.861 69.1356 144.551C69.5448 144.237 69.7639 143.731 69.735 143.206C70.2331 143.369 70.7663 143.28 71.1714 142.974C71.6591 142.596 72.0063 141.891 71.7232 141.275C71.6612 141.141 71.4876 140.93 71.3677 140.796L71.6591 140.566C71.7604 140.49 71.7872 140.343 71.7066 140.234C71.626 140.128 71.4772 140.108 71.3718 140.194L67.7757 142.976C67.5319 142.759 66.9759 142.342 66.0686 142.16V140.153C66.0686 139.967 65.9177 139.818 65.7317 139.818C65.5457 139.818 65.3969 139.967 65.3969 140.153V142.065H65.3928H65.3886C64.7996 142.003 64.1403 142.003 63.4501 142.052C63.4542 137.113 63.4459 136.363 63.4356 136.241H63.4459C63.4418 136.139 63.3922 136.059 63.293 136.007C63.1173 135.914 62.8052 135.935 62.6275 136.046C62.5407 136.111 62.4932 136.185 62.5014 136.27V136.549C62.4828 136.555 62.4704 136.555 62.4518 136.569C61.3895 137.592 59.6411 137.913 57.7562 137.45C57.6384 137.415 57.5247 137.487 57.4772 137.594C57.4338 137.706 57.4834 137.828 57.5867 137.894C57.7273 137.977 58.2998 138.419 58.4878 139.161C58.649 139.777 58.5126 140.442 58.0828 141.137C58.027 141.232 58.0394 141.352 58.1158 141.434C58.1592 141.476 58.2212 141.501 58.2853 141.501C58.3266 141.501 58.3659 141.492 58.4072 141.465C58.4196 141.459 59.794 140.641 61.1271 140.641C61.6706 140.641 62.1336 140.779 62.5056 141.044V142.123C61.5032 142.243 60.4244 142.46 59.2753 142.776C59.2422 142.782 59.2195 142.798 59.1947 142.817C54.0299 146.789 53.6827 152.097 53.6786 153.362C52.8312 153.122 51.9776 152.872 51.6676 152.593C51.6511 152.574 51.6263 152.582 51.6118 152.568C50.9401 151.702 49.758 150.826 49.7084 150.793C49.603 150.704 49.4583 150.739 49.3798 150.842C49.2992 150.948 49.324 151.105 49.4252 151.177C49.4376 151.185 50.5681 152.028 51.2047 152.826C50.9959 153.269 50.6715 154.37 51.8929 155.445C52.2918 155.798 52.2711 156.542 52.2463 157.33C52.2422 157.466 52.2401 157.613 52.2401 157.76C51.7379 157.633 51.2295 157.514 50.2168 157.514C49.202 157.514 48.6936 157.636 48.1914 157.76C47.7036 157.884 47.2407 157.989 46.2859 157.989C45.3331 157.989 44.866 157.881 44.3762 157.76C43.9587 157.658 43.5123 157.559 42.7848 157.524C36.657 153.463 31.8188 147.531 29.1031 140.521C29.0948 140.502 29.0927 140.49 29.0865 140.478C28.8716 139.924 28.6691 139.368 28.4831 138.799C28.4665 138.756 28.4541 138.719 28.4459 138.682C28.2681 138.142 28.1007 137.605 27.9519 137.055C27.9354 136.985 27.9106 136.914 27.894 136.838C27.7535 136.325 27.6295 135.811 27.5138 135.286C27.489 135.18 27.4662 135.075 27.4394 134.972C27.4166 134.848 27.396 134.734 27.3712 134.61C27.3836 134.668 27.396 134.734 27.4042 134.794H96.8753C94.9015 144.26 89.2821 152.376 81.5649 157.52ZM58.6986 138.661C58.5932 138.262 58.4052 137.929 58.2068 137.671C59.5109 137.851 60.7364 137.665 61.7057 137.156C61.3916 137.834 61.1911 138.799 61.7946 139.922C61.5321 139.847 61.249 139.816 60.9493 139.816C60.0482 139.816 59.1533 140.126 58.5705 140.387C58.7978 139.802 58.8392 139.223 58.6986 138.661ZM96.929 133.8H27.2761C27.2223 133.517 27.1645 133.238 27.1169 132.957C27.1004 132.851 27.0839 132.76 27.0653 132.661H41.5655C41.6151 132.661 41.6667 132.649 41.7081 132.618L43.1238 131.603H80.8788L82.2924 132.618C82.3338 132.649 82.3854 132.661 82.4309 132.661H97.1481C97.0861 133.043 97.0034 133.424 96.929 133.8ZM47.0113 131.109H45.5439H47.0113ZM51.5581 131.109H47.4288H51.5581ZM54.5673 131.109H51.9735H54.5673ZM72.1531 131.109H69.5655H72.1531ZM76.6895 131.109H72.5705H76.6895ZM78.4545 131.109H77.1111H78.4545ZM45.1244 131.109H43.0432C42.9936 131.109 42.9419 131.124 42.9026 131.159L41.491 132.167H25.8418C25.8583 132.287 25.8686 132.407 25.8893 132.531C25.8128 132.051 25.7488 131.558 25.6909 131.072C25.6702 130.907 25.6475 130.737 25.6248 130.57C25.5772 130.084 25.5421 129.592 25.509 129.102C25.4946 128.935 25.4801 128.765 25.4698 128.6C25.4346 127.943 25.4181 127.281 25.4181 126.618V105.043H97.4064V126.521H98.5927C98.5803 126.544 97.4064 126.583 97.4064 126.62C97.4064 128.507 97.2535 130.355 96.9807 132.171H82.5074L81.0896 131.163C81.0483 131.126 81.0028 131.113 80.9511 131.113H78.8699" fill="#FFB9D4"/>
<path d="M103.706 37.265C103.627 37.0956 103.481 36.9695 103.305 36.9096C102.654 36.6781 101.995 36.4487 101.333 36.242C101.31 36.2275 101.292 36.2234 101.269 36.2234C101.209 36.1986 101.143 36.1903 101.073 36.1903C101.069 36.1903 101.067 36.1841 101.06 36.1841H101.054H101.017C101.005 36.1841 100.988 36.1945 100.965 36.1986C100.912 36.2027 100.856 36.2234 100.8 36.242C100.79 36.2441 100.777 36.2441 100.763 36.2482L100.013 36.581C99.8803 36.5417 99.7439 36.4921 99.6116 36.4508L99.6178 36.426C99.7335 36.0539 99.5269 35.6592 99.159 35.5435C98.4522 35.3223 97.7453 35.1177 97.0365 34.911C96.9765 34.8924 96.9166 34.8862 96.8567 34.8862C96.8567 34.8862 96.8525 34.878 96.8484 34.878H96.8443H96.8298H96.8236C96.7141 34.8862 96.6169 34.911 96.5322 34.9524L95.7923 35.3099C95.66 35.2748 95.5195 35.2355 95.3852 35.2025L95.3975 35.1673C95.4926 34.7953 95.2735 34.4047 94.9015 34.3076C94.1699 34.103 93.43 33.9169 92.6943 33.7289C92.6385 33.7144 92.5827 33.7103 92.5227 33.7103C92.4359 33.7103 92.3553 33.7289 92.2768 33.764C92.2561 33.7681 92.2313 33.7867 92.2127 33.795C92.1569 33.8239 92.1053 33.8591 92.0619 33.9045C92.0494 33.9169 92.0308 33.9211 92.0185 33.9273L90.5035 35.5641C90.4188 35.6551 90.3589 35.7646 90.3279 35.8824L89.7719 38.2364L89.402 39.8299C89.402 39.8299 89.402 39.8402 89.402 39.8505C87.8519 39.4868 86.2915 39.1416 84.7167 38.8378L85.7501 37.7569C85.7645 37.7425 85.7645 37.7259 85.7749 37.7135C85.8389 37.6412 85.8885 37.5523 85.9113 37.4552C85.9216 37.4366 85.9278 37.4242 85.9319 37.4118L85.9361 37.3973L86.7545 33.1171C86.7917 32.9311 86.7504 32.7389 86.6429 32.5818C86.5416 32.433 86.3804 32.3256 86.2027 32.2884C85.502 32.1499 84.7973 32.0197 84.0925 31.8978C84.0553 31.8874 84.0202 31.8874 83.9851 31.8874H83.9809H83.9727H83.9623C83.8859 31.8874 83.8197 31.9019 83.7495 31.9246C83.7267 31.9288 83.704 31.9432 83.6875 31.9556C83.6544 31.9742 83.6234 31.9846 83.5965 31.999L82.931 32.4144C82.7884 32.3896 82.6314 32.369 82.4867 32.3442V32.3359C82.5446 31.9474 82.2862 31.5877 81.9101 31.5278C81.1805 31.41 80.451 31.3005 79.7173 31.1971C79.6842 31.193 79.6532 31.193 79.6181 31.193C79.6057 31.193 79.6015 31.1971 79.585 31.1971C79.5251 31.1992 79.4569 31.2075 79.3969 31.2343C79.3701 31.2385 79.3473 31.2571 79.3225 31.2715C79.2895 31.286 79.2626 31.2901 79.2357 31.3149L78.5744 31.7593C78.4297 31.7386 78.2768 31.7159 78.128 31.7055L78.1321 31.6952C78.1507 31.5092 78.097 31.3211 77.9874 31.1703C77.8738 31.0318 77.7063 30.9326 77.5224 30.9078C76.7701 30.8189 76.0116 30.73 75.249 30.6494H75.1849H75.1808C75.0775 30.6494 74.9845 30.6804 74.8956 30.7156C74.8667 30.7301 74.8481 30.7486 74.8233 30.761C74.7592 30.8024 74.7034 30.8479 74.6579 30.9016C74.6455 30.9223 74.6228 30.9264 74.6125 30.9409L73.3373 32.772C73.2691 32.8712 73.2195 32.989 73.2133 33.1109L72.9859 35.5166L72.8289 37.1431L72.833 37.1679C71.3016 37.0336 69.7618 36.9178 68.2097 36.8372C68.4288 36.5458 68.6913 36.1283 68.9992 35.5063V35.5021C69.0406 35.4174 69.0592 35.3244 69.0674 35.2231L69.2906 30.8665C69.301 30.6784 69.2369 30.4944 69.1129 30.358C68.9847 30.2216 68.8091 30.1328 68.6272 30.1245L66.2174 30.0274H66.2009H66.1926H66.1657H66.1368C65.9611 30.0274 65.7979 30.0873 65.6635 30.2134C65.6098 30.265 65.5684 30.3332 65.5333 30.4014L64.1693 31.7179L64.1796 30.6742C64.1837 30.4862 64.1135 30.3002 63.9833 30.17C63.8469 30.0398 63.6753 29.9633 63.4893 29.9633L62.0013 29.953H61.9951L60.505 29.9633C60.319 29.9633 60.1433 30.0377 60.0131 30.17C59.8808 30.3002 59.8085 30.4862 59.8126 30.6742L59.8188 31.7179L58.4589 30.4014C58.4217 30.3332 58.3845 30.2671 58.3246 30.2134C58.1964 30.0873 58.0269 30.0274 57.8513 30.0274H57.8223H57.8017H57.7913H57.7769L55.3629 30.1245C55.179 30.1328 55.0075 30.2216 54.8835 30.358C54.7574 30.4944 54.6933 30.6784 54.7057 30.8665L54.9269 35.2231C54.9331 35.3244 54.9599 35.4174 54.9992 35.5021C55.3113 36.1428 55.5675 36.5582 55.7928 36.8476C54.2428 36.9323 52.6969 37.048 51.1592 37.1906C51.1592 37.1906 51.1633 37.1576 51.1613 37.1431L51.0083 35.5166L50.781 33.1109C50.7707 32.989 50.7252 32.8712 50.6549 32.772L49.3777 30.9409C49.3674 30.9223 49.3467 30.9181 49.3322 30.9016C49.2847 30.8479 49.2372 30.8003 49.1731 30.761C49.1462 30.7466 49.1276 30.728 49.0966 30.7156C49.0098 30.6784 48.9147 30.6494 48.8114 30.6494H48.7411C47.9826 30.73 47.2262 30.8189 46.4739 30.9078C46.29 30.9326 46.1247 31.0318 46.0089 31.1703C45.8952 31.3211 45.8456 31.5092 45.8642 31.6952L45.9138 32.1024L44.7565 31.3149C44.7317 31.2901 44.6986 31.2798 44.6697 31.2715C44.6449 31.255 44.6242 31.2385 44.5973 31.2343C44.5353 31.2075 44.4692 31.1992 44.4031 31.1971C44.3927 31.1971 44.3824 31.193 44.3762 31.193C44.3452 31.193 44.3121 31.193 44.2791 31.1971C43.5474 31.3005 42.8158 31.4121 42.0842 31.5278C41.7122 31.5857 41.4497 31.9453 41.5138 32.3359L41.5696 32.7327L40.3874 31.9908C40.375 31.9866 40.3626 31.9866 40.3543 31.9825C40.2531 31.9246 40.1435 31.8874 40.0237 31.8874C39.9823 31.8874 39.9431 31.8874 39.9017 31.8978C39.199 32.0218 38.4964 32.1499 37.7937 32.2884C37.6159 32.3256 37.4527 32.431 37.3514 32.5818C37.246 32.7389 37.2067 32.9311 37.2418 33.1171L38.0603 37.3973C38.0603 37.3973 38.0644 37.4118 38.0685 37.4159C38.0685 37.4159 38.0768 37.4387 38.0809 37.4552C38.1099 37.5544 38.1615 37.6433 38.2235 37.7197C38.2318 37.7301 38.2318 37.7466 38.2442 37.7611L39.292 38.8606C37.7172 39.1685 36.1527 39.5054 34.5985 39.8753C34.5964 39.8547 34.5985 39.8443 34.5985 39.8443L34.2182 38.2426L33.6643 35.8886C33.6354 35.7687 33.5796 35.6613 33.4928 35.5703L31.98 33.9355C31.9696 33.9293 31.9552 33.919 31.9386 33.9066C31.8952 33.8673 31.8456 33.8322 31.7919 33.8033C31.7692 33.795 31.7485 33.7764 31.7216 33.7723C31.641 33.7351 31.5563 33.7185 31.4715 33.7185C31.4157 33.7185 31.362 33.7227 31.3021 33.7371C30.5663 33.9252 29.8264 34.1133 29.0948 34.3158C28.7269 34.413 28.5037 34.8036 28.6029 35.1756L28.7042 35.5641L27.4538 34.9565C27.3567 34.909 27.2554 34.8862 27.1562 34.8862C27.0901 34.8862 27.0281 34.8966 26.9619 34.9193C26.2489 35.126 25.5462 35.3285 24.8373 35.5517C24.4695 35.6675 24.2628 36.0622 24.3765 36.4342L24.4901 36.8186L23.217 36.2544C23.2088 36.2524 23.1984 36.2524 23.1922 36.2524C23.1096 36.2131 23.029 36.1965 22.9401 36.1965C22.8698 36.1965 22.7975 36.2069 22.7251 36.2358C22.0452 36.4487 21.3632 36.6843 20.6915 36.9199C20.5158 36.9819 20.3732 37.108 20.2926 37.2775C20.2099 37.4407 20.1975 37.6391 20.2575 37.8169L21.6525 41.9462C21.6546 41.9503 21.6628 41.9565 21.6628 41.9565C21.669 41.9731 21.6752 41.9875 21.6856 41.9999C21.7248 42.0909 21.7848 42.1673 21.8571 42.2355C21.8716 42.2479 21.8737 42.2624 21.8819 42.2645L23.3968 43.4818C23.4196 43.4921 23.4444 43.4983 23.4712 43.5169C23.4857 43.5272 23.4981 43.5438 23.5167 43.5541C23.5291 43.5562 23.5394 43.5541 23.5539 43.5603C23.5932 43.581 23.6386 43.581 23.68 43.5975L28.2578 57.5355L30.4774 64.2958H30.5374C31.8663 66.8544 47.4164 68.5388 61.993 68.5388C76.5738 68.5388 92.1259 66.8565 93.4507 64.2958H93.5106L95.7303 57.5314V57.5376L100.308 43.6058C100.333 43.6058 100.36 43.6058 100.38 43.5996C100.399 43.5872 100.411 43.5748 100.42 43.5748C100.48 43.5458 100.533 43.5272 100.583 43.4859H100.587L102.106 42.2686C102.125 42.2665 102.129 42.25 102.141 42.2397C102.212 42.1715 102.269 42.095 102.307 42.0041C102.315 41.9896 102.325 41.9751 102.331 41.9627C102.331 41.9627 102.338 41.9524 102.342 41.9483L103.731 37.8189C103.797 37.6267 103.791 37.4283 103.706 37.265ZM90.2493 40.7764L89.5983 43.4466C87.6246 42.9672 85.6405 42.5228 83.6399 42.1405L84.1277 39.4351C86.1841 39.8278 88.2219 40.2845 90.2493 40.7764ZM89.1684 45.2158L86.957 54.2474C85.1962 53.8216 83.4291 53.4331 81.6476 53.1003L83.3175 43.9282C85.2809 44.3085 87.2298 44.7363 89.1684 45.2158ZM75.1849 31.3439C75.9414 31.4203 76.6916 31.5113 77.4439 31.5981L77.2103 33.5367C77.9275 33.6214 78.6446 33.7227 79.3597 33.8177L79.6305 31.8936C80.3559 31.9949 81.0772 32.1003 81.8026 32.2181L81.5071 34.1402C82.2201 34.258 82.931 34.3778 83.642 34.5101L83.9747 32.5839C84.6754 32.71 85.378 32.8381 86.0725 32.9725L85.254 37.263C81.7985 36.5851 78.2933 36.0622 74.7406 35.6902L75.1849 31.3439ZM76.2286 38.2157C78.6446 38.5113 81.0689 38.8668 83.4477 39.307L80.9656 52.9557C80.4758 52.8689 79.9839 52.8027 79.4941 52.718L80.1348 48.8077C80.2257 48.1836 80.0872 47.5594 79.7441 47.0861C79.4465 46.6873 79.0373 46.4351 78.5764 46.3649H78.562C77.5348 46.2202 76.5552 47.0634 76.3816 48.258L75.8546 52.1744C75.466 52.1269 75.0733 52.0628 74.6827 52.0174L76.2286 38.2157ZM73.8023 37.9595L73.5212 40.6958C71.5 40.4912 69.4787 40.3362 67.445 40.2411L67.5608 37.4903C69.6502 37.5875 71.7335 37.7569 73.8023 37.9595ZM73.3373 42.5083L72.3763 51.7921C70.5823 51.6143 68.7781 51.4759 66.9656 51.3911L67.3665 42.064C69.3671 42.1549 71.3553 42.3182 73.3373 42.5083ZM55.6213 35.1839L55.3981 30.8293L57.0969 30.7549L57.8575 30.7218L57.9277 32.6666C57.9277 32.6666 58.7813 32.6459 59.1512 32.6335C59.5935 32.619 60.5277 32.6046 60.5277 32.6046L60.5132 30.6556L61.9992 30.6536L63.4914 30.6556L63.4728 32.6046C63.4728 32.6046 64.409 32.619 64.8534 32.6335C65.2254 32.6459 66.0789 32.6666 66.0789 32.6666L66.143 30.7218L66.9015 30.7549L68.6045 30.8293L68.4164 34.4812L68.3751 35.1859C66.2629 35.0722 64.1362 35.0164 61.9971 35.0164C59.8601 35.0144 57.7355 35.0702 55.6213 35.1839ZM62.0839 45.1269H62.0571H61.9413H61.9186C60.6186 45.1703 59.5749 46.1313 59.5729 47.3218L59.6431 51.2961C59.2422 51.3002 58.8371 51.3188 58.4403 51.3291C58.2047 51.3436 57.967 51.3415 57.7293 51.3519L57.1383 37.4593C58.7482 37.3911 60.3789 37.356 61.9992 37.356C63.6257 37.356 65.2584 37.3911 66.8684 37.4593L66.2753 51.3519C65.6346 51.3229 64.996 51.3229 64.3594 51.3105L64.4297 47.3135C64.4255 46.1334 63.3798 45.1724 62.0839 45.1269ZM57.037 51.387C55.2265 51.4717 53.4202 51.602 51.6201 51.7756L50.6653 42.5207C52.6452 42.3306 54.6313 42.1735 56.636 42.0743L57.037 51.387ZM56.4438 37.5069L56.5575 40.2515C54.5259 40.3569 52.5005 40.5139 50.4772 40.7144L50.1982 37.9822C52.2711 37.7714 54.3523 37.6081 56.4438 37.5069ZM43.8637 48.8181L44.5023 52.7201C44.0207 52.8048 43.5226 52.8709 43.037 52.9577L40.5528 39.309C42.9357 38.8688 45.3579 38.5113 47.778 38.2178L49.3178 52.0215C48.9292 52.067 48.5386 52.131 48.15 52.1786L47.623 48.2538C47.4474 47.0655 46.4698 46.2305 45.4364 46.3711H45.4261C44.9611 46.4393 44.5498 46.6914 44.2625 47.0923C43.9091 47.5615 43.7706 48.1856 43.8637 48.8181ZM42.3549 53.1024C40.5734 53.4351 38.7981 53.8092 37.0414 54.235L34.8362 45.2282C36.7706 44.7549 38.7196 44.3271 40.6912 43.9509L42.3549 53.1024ZM38.7444 37.2609L37.9259 32.9704C38.6245 32.8381 39.323 32.7079 40.0257 32.5818L40.3585 34.508C41.0674 34.3778 41.7804 34.2559 42.4996 34.1381L42.1979 32.216C42.9212 32.0962 43.6487 31.9928 44.3741 31.8916L44.6428 33.8157C45.3538 33.7206 46.0709 33.6193 46.7881 33.5346L46.5587 31.596C47.3068 31.5092 48.0612 31.4183 48.8135 31.3418L49.264 35.6881C45.7051 36.0601 42.1999 36.583 38.7444 37.2609ZM39.8728 39.4579L40.3626 42.1611C38.3661 42.5435 36.3821 42.9796 34.4042 43.4694L33.7573 40.793C35.7848 40.3011 37.8247 39.8485 39.8728 39.4579ZM23.0848 41.4543C23.0517 41.4646 23.0248 41.4708 22.998 41.4832C22.7665 41.5556 22.5371 41.6279 22.3097 41.7065L22.0845 41.0368L20.9168 37.573C21.5884 37.3457 22.2643 37.108 22.9421 36.8889L23.525 38.718C24.2132 38.4968 24.9035 38.2715 25.5958 38.0628L25.3313 37.1803L25.044 36.2234C25.5214 36.0705 26.003 35.9279 26.4887 35.7832C26.7077 35.7171 26.9289 35.6489 27.1562 35.5827L27.677 37.4345C28.3694 37.2382 29.0659 37.0439 29.7644 36.8517L29.5247 35.9547L29.2746 34.9896C29.781 34.8511 30.2894 34.7209 30.7999 34.5907C31.0251 34.539 31.2483 34.4729 31.4715 34.4171L32.507 38.6477C29.3118 39.4578 26.1704 40.3961 23.0848 41.4543ZM26.0732 48.6197H26.0691L24.3827 43.4714C26.6953 42.6964 29.0431 41.9979 31.3889 41.3654L34.799 54.8095C34.4249 54.9108 34.055 55.0245 33.6788 55.1195L32.631 51.3291C32.2941 50.1842 31.2111 49.4815 30.215 49.7667C30.2088 49.7667 30.2026 49.7667 30.1964 49.7729C29.752 49.9031 29.3779 50.211 29.1423 50.6575C28.8654 51.1741 28.8096 51.8045 28.9853 52.4183L30.1468 56.1736C29.6652 56.3244 29.1816 56.4712 28.7001 56.6282L26.0732 48.6197ZM93.1634 63.126C90.6585 60.4496 76.4746 57.3454 61.9971 57.3454C47.5238 57.3454 33.3378 60.4496 30.8371 63.126L29.2643 58.3457C39.7777 54.8467 50.7686 53.0611 61.9413 53.0611H62.055C73.2277 53.0611 84.2248 54.8447 94.7321 58.3457L93.1634 63.126ZM97.9293 48.6197L95.2983 56.6282C94.8251 56.4712 94.3373 56.3265 93.8516 56.1736L95.0152 52.408C95.1929 51.8045 95.1351 51.1638 94.8602 50.6513C94.6267 50.211 94.2484 49.9052 93.8062 49.7729C93.7979 49.7667 93.7938 49.7667 93.7855 49.7667C92.7831 49.4815 91.7043 50.1842 91.3716 51.3291L90.3196 55.1195C89.9455 55.0121 89.5756 54.9087 89.2015 54.8095L92.6116 41.3654C94.9511 41.9979 97.3051 42.6964 99.6157 43.4714L97.9293 48.6197ZM101.685 41.7065C98.3447 40.5449 94.9429 39.5261 91.4852 38.6498L92.5186 34.4192C93.2585 34.599 93.9922 34.7994 94.7176 34.9916L94.2299 36.8517C94.9305 37.0439 95.6208 37.2402 96.3214 37.4345L96.8422 35.5827C97.549 35.7915 98.2517 35.9981 98.9523 36.2234L98.4005 38.0628C99.0949 38.2736 99.7832 38.4968 100.471 38.718L101.052 36.8889C101.732 37.108 102.404 37.3457 103.082 37.573L101.685 41.7065Z" fill="#FFB9D4"/>
<path d="M64.5847 142.22C64.3511 142.381 64.13 142.567 63.9109 142.743C63.7146 142.908 63.5265 143.08 63.3405 143.255C62.9912 143.6 62.6544 143.962 62.3609 144.351C62.1542 144.632 61.9599 144.913 61.7843 145.204C60.2445 147.808 60.724 151.423 62.1005 153.767C60.5587 153.256 58.9177 152.998 57.2003 152.998C55.5551 152.998 54.3048 153.238 53.7571 153.364C53.7654 152.082 54.1312 146.901 59.2112 142.976C59.7713 142.819 60.3086 142.695 60.8336 142.588C60.8522 142.581 60.8708 142.581 60.8894 142.581C62.2493 142.302 63.4914 142.176 64.5847 142.22Z" fill="#FFB9D4"/>
<path d="M71.2272 140.682C71.3553 140.835 71.5124 141.023 71.5537 141.118C71.7666 141.569 71.471 142.135 71.0887 142.431C70.7084 142.73 70.169 142.767 69.7102 142.528C69.6688 142.484 69.6068 142.482 69.551 142.497C69.4663 142.528 69.4188 142.621 69.4394 142.701C69.5614 143.216 69.3857 143.747 68.991 144.053C68.6086 144.349 68.0671 144.388 67.6145 144.142C67.5711 144.111 67.507 144.098 67.4492 144.121C67.3665 144.15 67.321 144.239 67.3355 144.32C67.4595 144.84 67.2838 145.369 66.8932 145.673C66.6948 145.818 66.4592 145.903 66.2133 145.925C66.205 145.925 66.1947 145.919 66.1823 145.919C65.9632 145.93 65.7235 145.882 65.5085 145.766C65.463 145.725 65.399 145.723 65.337 145.75C65.2605 145.775 65.2212 145.865 65.2398 145.944C65.3618 146.465 65.1882 146.992 64.7893 147.294C64.7376 147.333 64.6756 147.364 64.6178 147.391C64.5248 147.442 64.4379 147.482 64.3387 147.498C64.3305 147.5 64.3222 147.5 64.3139 147.506C64.2251 147.523 64.1341 147.544 64.0432 147.544C64.006 147.544 63.9647 147.535 63.9295 147.531C63.8634 147.523 63.7973 147.517 63.7311 147.506C63.6195 147.482 63.5079 147.444 63.4067 147.382C63.355 147.349 63.2785 147.339 63.2206 147.378C63.1566 147.413 63.1173 147.492 63.1359 147.566C63.2537 148.081 63.0822 148.616 62.6895 148.92C62.4622 149.09 62.1831 149.164 61.9 149.154C61.8669 149.154 61.8339 149.154 61.7987 149.15C61.6375 149.131 61.4825 149.094 61.3337 149.019C61.3337 148.775 61.3461 148.538 61.3709 148.296L62.3547 147.533L66.0397 144.687L71.2272 140.682Z" fill="#FFB9D4"/>
<path d="M70.0987 150.906C70.0264 150.958 69.952 150.987 69.8734 151.018H69.8672C69.7887 151.047 69.704 151.059 69.6192 151.059C69.4663 151.059 69.3072 151.022 69.1708 150.941C69.1191 150.906 69.0467 150.894 68.993 150.917C68.9165 150.948 68.8711 151.034 68.8917 151.119C68.9641 151.47 68.8339 151.828 68.5631 152.024C68.3007 152.214 67.9328 152.235 67.6372 152.064C67.5938 152.028 67.536 152.012 67.4781 152.028C67.3892 152.057 67.3376 152.142 67.3562 152.239C67.4182 152.549 67.2342 152.973 66.9284 153.192C66.8726 153.238 66.794 153.26 66.7093 153.275C66.6741 153.289 66.639 153.289 66.5977 153.293C66.5563 153.3 66.5088 153.304 66.4675 153.304C66.4055 153.3 66.3435 153.293 66.2939 153.283C66.2732 153.275 66.2608 153.275 66.2422 153.275C66.1678 153.26 66.1079 153.244 66.0417 153.217C65.9921 153.192 65.9301 153.176 65.8991 153.145V152.882L71.7356 148.687C71.8141 148.817 71.8885 148.959 71.9092 149.003C72.0104 149.305 71.9112 149.586 71.6343 149.786C71.3718 149.982 71.006 150.001 70.7043 149.829C70.6671 149.788 70.6133 149.786 70.5534 149.788C70.4645 149.817 70.4108 149.906 70.4294 149.999C70.4976 150.346 70.3695 150.702 70.0987 150.906Z" fill="#FFB9D4"/>
<path d="M56.171 155.197C57.1507 156.848 57.6405 156.906 59.4592 157.135C59.7155 157.173 59.9903 157.197 60.2962 157.243L60.4368 157.261C61.4825 157.404 62.5614 157.559 63.51 157.559C63.7787 157.559 64.0246 157.538 64.2478 157.52C64.409 157.497 64.5496 157.472 64.688 157.437C64.7356 157.423 64.7914 157.416 64.8389 157.404C65.0063 157.357 65.153 157.303 65.2853 157.233C65.2936 157.23 65.2998 157.224 65.308 157.22C65.4506 157.154 65.5705 157.069 65.6801 156.972C65.7359 156.923 65.802 156.885 65.8475 156.836C65.9343 156.728 65.9859 156.6 66.0438 156.47C66.0831 156.379 66.1099 156.286 66.143 156.189C66.1699 156.04 66.205 155.887 66.205 155.716C66.6101 155.788 67.0358 155.823 67.4657 155.823C69.8176 155.823 71.9257 154.796 72.8785 154.246C72.6966 154.788 72.3742 155.511 72.0394 155.62C71.9484 155.654 71.8864 155.736 71.874 155.833C71.7583 156.972 71.1528 157.042 71.13 157.042C71.068 157.049 71.006 157.084 70.9647 157.133C70.9192 157.185 70.8965 157.243 70.9027 157.313C70.9254 157.611 70.9254 157.873 70.9109 158.111V158.115C70.8799 158.741 70.7435 159.194 70.5823 159.529C70.3405 159.578 70.0677 159.622 69.7081 159.638C69.5862 159.642 69.458 159.653 69.3134 159.653C68.4329 159.653 68.0051 159.529 67.5484 159.415C67.0854 159.285 66.6018 159.15 65.6532 159.15C64.7087 159.15 64.2313 159.283 63.7663 159.415C63.3074 159.531 62.8776 159.653 61.9971 159.653C61.1126 159.653 60.6827 159.529 60.228 159.415C59.7651 159.285 59.2835 159.15 58.3349 159.15C57.3863 159.15 56.9047 159.283 56.4418 159.415C55.985 159.531 55.5531 159.653 54.6727 159.653C53.7902 159.653 53.3603 159.529 52.9056 159.415C52.7651 159.37 52.6163 159.336 52.4592 159.299H52.4633C52.4178 159.184 52.3827 159.06 52.3558 158.931C52.3 158.656 52.2835 158.349 52.2835 158.036V158.03C52.2835 157.848 52.2876 157.673 52.2897 157.497C52.3166 156.604 52.3455 155.682 51.7586 155.168C50.8141 154.337 50.9691 153.531 51.1241 153.145C51.6036 153.442 52.3889 153.661 53.2755 153.915C54.4784 154.265 55.8445 154.657 56.171 155.197Z" fill="#FFB9D4"/>
<path d="M58.6986 138.661C58.5932 138.262 58.4052 137.929 58.2068 137.671C59.5109 137.853 60.7364 137.667 61.7057 137.158C61.3916 137.836 61.1911 138.801 61.7946 139.924C61.5321 139.851 61.249 139.818 60.9472 139.818C60.0482 139.818 59.1533 140.128 58.5705 140.389C58.7978 139.802 58.8392 139.221 58.6986 138.661Z" fill="#FFB9D4"/>
<path d="M97.6999 126.519V105.043H25.4202V126.62C25.4202 127.281 25.4388 127.943 25.4718 128.6C25.4822 128.765 25.4966 128.935 25.5111 129.102C25.5421 129.592 25.5793 130.084 25.6268 130.57C25.6496 130.737 25.6702 130.907 25.693 131.072C25.7508 131.558 25.8149 132.051 25.8893 132.531C25.8707 132.407 25.8604 132.287 25.8418 132.167H41.4931L42.9047 131.159C42.944 131.121 42.9915 131.109 43.0432 131.109H45.1264H78.8741H80.9552C81.0069 131.109 81.0524 131.124 81.0937 131.159L82.5115 132.167H97.2762C97.547 130.351 97.702 128.505 97.702 126.618C97.702 126.579 97.7061 126.54 97.7185 126.517L97.6999 126.519ZM46.4016 130.623H45.1264V118.957C45.1264 118.572 45.4261 118.277 45.7898 118.277H46.3603L46.4016 118.275V130.623ZM69.2576 130.623H67.8315C67.848 127.61 67.7943 126.827 67.7943 126.827C67.7943 123.005 64.9898 121.503 62.0674 121.532C59.6907 121.559 56.2785 123.007 56.2785 126.827C56.2785 126.827 56.231 127.61 56.2392 130.623H54.8711C54.8504 127.139 54.8525 125.791 54.8525 125.791C54.8525 121.871 58.1551 118.552 62.0633 118.552C65.9735 118.552 69.27 121.86 69.27 125.773C69.272 125.773 69.2803 127.139 69.2576 130.623ZM71.5248 130.623H69.8755C69.8962 127.139 69.8962 125.771 69.8962 125.771C69.8962 121.517 66.3083 117.932 62.0653 117.923C57.8223 117.932 54.2324 121.53 54.2324 125.791C54.2324 125.791 54.2324 127.139 54.2531 130.623H52.639M51.9776 130.623H47.0175V116.696V116.065V113.217C47.0319 112.916 47.2758 112.666 47.5796 112.666H50.75H51.4093C51.7214 112.666 51.9776 112.926 51.9776 113.234V113.823H52.639H71.5248H72.1448H72.1572V113.463V113.234C72.1572 112.926 72.4114 112.666 72.7193 112.666H75.8814H76.5407C76.8507 112.666 77.1008 112.926 77.1008 113.234V113.463H77.1091V116.063V116.694V118.277V130.623H72.1427M78.872 130.623H77.7291V118.277H78.2065C78.5723 118.277 78.8699 118.574 78.8699 118.957L78.872 130.623Z" fill="#FFB9D4"/>
</svg>
